# This file uses centimeters as units for non-parametric coordinates.

mtllib Hallway.mtl
g default
v -97.407316 205.647846 360.860185
v 101.572894 205.647846 360.860185
v -97.407316 215.692524 360.860185
v 101.572894 215.692524 360.860185
v -97.407316 215.692524 351.522035
v 101.572894 215.692524 351.522035
v -97.407316 205.647846 351.522035
v 101.572894 205.647846 351.522035
v -98.672368 0.950287 456.561357
v 102.718905 0.950287 456.561357
v -98.672368 0.950287 -291.157332
v 102.718905 0.950287 -291.157332
v -98.672368 10.459865 456.561357
v -98.672368 10.459865 -291.157332
v 102.718905 10.459865 456.561357
v 102.718905 10.459865 -291.157332
v -107.065450 10.459865 456.561357
v -107.065450 10.459865 -291.157332
v 111.111972 10.459865 456.561357
v 111.111972 10.459865 -291.157332
v -107.065450 0.950287 456.561357
v -107.065450 0.950287 -291.157332
v 111.111972 0.950287 456.561357
v 111.111972 0.950287 -291.157332
v -109.997320 0.950287 456.561357
v -109.997320 0.950287 -291.157332
v 114.043795 0.950287 456.561357
v 114.043795 0.950287 -291.157332
v -109.997320 206.404010 456.561357
v -109.997320 206.404010 -291.157332
v 114.043795 206.404010 456.561357
v 114.043795 206.404010 -291.157332
v -98.672368 206.404010 456.561357
v -98.672368 206.404010 -291.157332
v 102.718905 206.404010 456.561357
v 102.718905 206.404010 -291.157332
v -98.672368 215.641224 456.561357
v -98.672368 215.641224 -291.157332
v 102.718905 215.641224 456.561357
v 102.718905 215.641224 -291.157332
v -109.997320 215.641224 456.561357
v -109.997320 215.641224 -291.157332
v 114.043795 215.641224 456.561357
v 114.043795 215.641224 -291.157332
v -109.997320 227.958088 456.561357
v -109.997320 227.958088 -291.157332
v 114.043795 227.958088 456.561357
v 114.043795 227.958088 -291.157332
v 2.023265 0.950287 456.561357
v 2.023265 0.950287 -291.157332
v 2.023265 206.404010 -291.157332
v 2.023265 215.641224 -291.157332
v 2.023234 227.958088 -291.157332
v 2.023234 227.958088 456.561357
v 52.371081 0.950287 456.561357
v 52.371081 0.950287 -291.157332
v 52.371081 10.459865 -291.157332
v 52.371081 206.404010 -291.157332
v 52.371081 215.641224 -291.157332
v 58.033511 227.958088 -291.157332
v 58.033511 227.958088 456.561357
v -48.324552 0.950287 456.561357
v -48.324552 0.950287 -291.157332
v -48.324552 10.459865 -291.157332
v -48.324552 206.404010 -291.157332
v -48.324552 215.641224 -291.157332
v -53.987047 227.958088 -291.157332
v -53.987047 227.958088 456.561357
v -97.407316 205.647846 170.385179
v 101.572894 205.647846 170.385179
v -97.407316 215.692524 170.385179
v 101.572894 215.692524 170.385179
v -97.407316 215.692524 161.047044
v 101.572894 215.692524 161.047044
v -97.407316 205.647846 161.047044
v 101.572894 205.647846 161.047044
v -97.407316 205.647846 -20.089827
v 101.572894 205.647846 -20.089827
v -97.407316 215.692524 -20.089827
v 101.572894 215.692524 -20.089827
v -97.407316 215.692524 -29.427962
v 101.572894 215.692524 -29.427962
v -97.407316 205.647846 -29.427962
v 101.572894 205.647846 -29.427962
v -97.407316 205.647846 -190.117476
v 101.572894 205.647846 -190.117476
v -97.407316 215.692524 -190.117476
v 101.572894 215.692524 -190.117476
v -97.407316 215.692524 -199.455611
v 101.572894 215.692524 -199.455611
v -97.407316 205.647846 -199.455611
v 101.572894 205.647846 -199.455611
vt 0.375000 0.000000
vt 0.625000 0.000000
vt 0.375000 0.250000
vt 0.625000 0.250000
vt 0.375000 0.500000
vt 0.625000 0.500000
vt 0.375000 0.750000
vt 0.625000 0.750000
vt 0.375000 1.000000
vt 0.625000 1.000000
vt 0.875000 0.000000
vt 0.875000 0.250000
vt 0.125000 0.000000
vt 0.125000 0.250000
vt 0.000000 0.000000
vt 0.250000 0.000000
vt 0.250000 1.000000
vt 0.000000 1.000000
vt 0.000000 0.000000
vt 1.000000 0.000000
vt 1.000000 1.000000
vt 0.000000 1.000000
vt 0.000000 0.000000
vt 1.000000 0.000000
vt 1.000000 1.000000
vt 0.000000 1.000000
vt 0.000000 0.000000
vt 1.000000 0.000000
vt 1.000000 1.000000
vt 0.000000 1.000000
vt 0.000000 0.000000
vt 1.000000 0.000000
vt 1.000000 1.000000
vt 0.000000 1.000000
vt 0.000000 0.000000
vt 1.000000 0.000000
vt 1.000000 1.000000
vt 0.000000 1.000000
vt 0.000000 0.000000
vt 1.000000 0.000000
vt 1.000000 1.000000
vt 0.000000 1.000000
vt 0.000000 0.000000
vt 1.000000 0.000000
vt 1.000000 1.000000
vt 0.000000 1.000000
vt 0.000000 0.000000
vt 1.000000 0.000000
vt 1.000000 1.000000
vt 0.000000 1.000000
vt 0.000000 0.000000
vt 1.000000 0.000000
vt 1.000000 1.000000
vt 0.000000 1.000000
vt 0.000000 0.000000
vt 1.000000 0.000000
vt 1.000000 1.000000
vt 0.000000 1.000000
vt 0.000000 0.000000
vt 1.000000 0.000000
vt 1.000000 1.000000
vt 0.000000 1.000000
vt 0.000000 0.000000
vt 1.000000 0.000000
vt 1.000000 1.000000
vt 0.000000 1.000000
vt 0.000000 0.000000
vt 1.000000 0.000000
vt 1.000000 1.000000
vt 0.000000 1.000000
vt 0.000000 0.000000
vt 1.000000 0.000000
vt 1.000000 1.000000
vt 0.000000 1.000000
vt 0.000000 0.000000
vt 1.000000 0.000000
vt 1.000000 1.000000
vt 0.000000 1.000000
vt 0.000000 0.000000
vt 1.000000 0.000000
vt 1.000000 1.000000
vt 0.000000 1.000000
vt 0.000000 0.000000
vt 1.000000 0.000000
vt 1.000000 1.000000
vt 0.000000 1.000000
vt 0.000000 0.000000
vt 1.000000 0.000000
vt 1.000000 1.000000
vt 0.000000 1.000000
vt 0.750000 1.000000
vt 0.250000 1.000000
vt 0.750000 0.750000
vt 0.750000 0.750000
vt 0.000000 0.750000
vt 0.750000 0.750000
vt 0.500000 1.000000
vt 0.500000 0.000000
vt 0.750000 0.000000
vt 0.750000 1.000000
vt 0.500000 0.500000
vt 0.500000 0.500000
vt 0.250000 0.250000
vt 0.250000 0.250000
vt 0.500000 1.000000
vt 0.250000 1.000000
vt 0.500000 1.000000
vt 0.750000 1.000000
vt 1.000000 0.000000
vt 1.000000 1.000000
vt 0.250000 0.250000
vt 0.000000 0.250000
vt 0.375000 0.000000
vt 0.625000 0.000000
vt 0.625000 0.250000
vt 0.375000 0.250000
vt 0.625000 0.500000
vt 0.375000 0.500000
vt 0.625000 0.750000
vt 0.375000 0.750000
vt 0.625000 1.000000
vt 0.375000 1.000000
vt 0.875000 0.000000
vt 0.875000 0.250000
vt 0.125000 0.000000
vt 0.125000 0.250000
vt 0.375000 0.000000
vt 0.625000 0.000000
vt 0.625000 0.250000
vt 0.375000 0.250000
vt 0.625000 0.500000
vt 0.375000 0.500000
vt 0.625000 0.750000
vt 0.375000 0.750000
vt 0.625000 1.000000
vt 0.375000 1.000000
vt 0.875000 0.000000
vt 0.875000 0.250000
vt 0.125000 0.000000
vt 0.125000 0.250000
vt 0.375000 0.000000
vt 0.625000 0.000000
vt 0.625000 0.250000
vt 0.375000 0.250000
vt 0.625000 0.500000
vt 0.375000 0.500000
vt 0.625000 0.750000
vt 0.375000 0.750000
vt 0.625000 1.000000
vt 0.375000 1.000000
vt 0.875000 0.000000
vt 0.875000 0.250000
vt 0.125000 0.000000
vt 0.125000 0.250000
vn 0.000000 0.000000 1.000000
vn 0.000000 0.000000 1.000000
vn 0.000000 0.000000 1.000000
vn 0.000000 0.000000 1.000000
vn 0.000000 1.000000 0.000000
vn 0.000000 1.000000 0.000000
vn 0.000000 1.000000 0.000000
vn 0.000000 1.000000 0.000000
vn 0.000000 0.000000 -1.000000
vn 0.000000 0.000000 -1.000000
vn 0.000000 0.000000 -1.000000
vn 0.000000 0.000000 -1.000000
vn 0.000000 -1.000000 0.000000
vn 0.000000 -1.000000 0.000000
vn 0.000000 -1.000000 0.000000
vn 0.000000 -1.000000 0.000000
vn 1.000000 0.000000 0.000000
vn 1.000000 0.000000 0.000000
vn 1.000000 0.000000 0.000000
vn 1.000000 0.000000 0.000000
vn -1.000000 0.000000 0.000000
vn -1.000000 0.000000 0.000000
vn -1.000000 0.000000 0.000000
vn -1.000000 0.000000 0.000000
vn 0.000000 1.000000 0.000000
vn 0.000000 1.000000 0.000000
vn 0.000000 1.000000 0.000000
vn 0.000000 1.000000 0.000000
vn 1.000000 0.000000 0.000000
vn 1.000000 0.000000 0.000000
vn 1.000000 0.000000 0.000000
vn 1.000000 0.000000 0.000000
vn -1.000000 0.000000 0.000000
vn -1.000000 0.000000 0.000000
vn -1.000000 0.000000 0.000000
vn -1.000000 0.000000 0.000000
vn 0.000000 1.000000 0.000000
vn 0.000000 1.000000 0.000000
vn 0.000000 1.000000 0.000000
vn 0.000000 1.000000 0.000000
vn 0.000000 1.000000 0.000000
vn 0.000000 1.000000 0.000000
vn 0.000000 1.000000 0.000000
vn 0.000000 1.000000 0.000000
vn -1.000000 0.000000 0.000000
vn -1.000000 0.000000 0.000000
vn -1.000000 0.000000 0.000000
vn -1.000000 0.000000 0.000000
vn 1.000000 0.000000 0.000000
vn 1.000000 0.000000 0.000000
vn 1.000000 0.000000 0.000000
vn 1.000000 0.000000 0.000000
vn 0.000000 1.000000 0.000000
vn 0.000000 1.000000 0.000000
vn 0.000000 1.000000 0.000000
vn 0.000000 1.000000 0.000000
vn 0.000000 1.000000 0.000000
vn 0.000000 1.000000 0.000000
vn 0.000000 1.000000 0.000000
vn 0.000000 1.000000 0.000000
vn 1.000000 0.000000 0.000000
vn 1.000000 0.000000 0.000000
vn 1.000000 0.000000 0.000000
vn 1.000000 0.000000 0.000000
vn -1.000000 0.000000 0.000000
vn -1.000000 0.000000 0.000000
vn -1.000000 0.000000 0.000000
vn -1.000000 0.000000 0.000000
vn 0.000000 -1.000000 0.000000
vn 0.000000 -1.000000 0.000000
vn 0.000000 -1.000000 0.000000
vn 0.000000 -1.000000 0.000000
vn 0.000000 -1.000000 0.000000
vn 0.000000 -1.000000 0.000000
vn 0.000000 -1.000000 0.000000
vn 0.000000 -1.000000 0.000000
vn 1.000000 0.000000 0.000000
vn 1.000000 0.000000 0.000000
vn 1.000000 0.000000 0.000000
vn 1.000000 0.000000 0.000000
vn -1.000000 0.000000 0.000000
vn -1.000000 0.000000 0.000000
vn -1.000000 0.000000 0.000000
vn -1.000000 0.000000 0.000000
vn 0.000000 1.000000 0.000000
vn 0.000000 1.000000 0.000000
vn 0.000000 1.000000 0.000000
vn 0.000000 1.000000 0.000000
vn 0.000000 1.000000 0.000000
vn 0.000000 1.000000 0.000000
vn 0.000000 1.000000 0.000000
vn 0.000000 1.000000 0.000000
vn 1.000000 0.000000 0.000000
vn 1.000000 0.000000 0.000000
vn 1.000000 0.000000 0.000000
vn 1.000000 0.000000 0.000000
vn -1.000000 0.000000 0.000000
vn -1.000000 0.000000 0.000000
vn -1.000000 0.000000 0.000000
vn -1.000000 0.000000 0.000000
vn 0.000000 -1.000000 0.000000
vn 0.000000 -1.000000 0.000000
vn 0.000000 -1.000000 0.000000
vn 0.000000 -1.000000 0.000000
vn 0.000000 0.000000 1.000000
vn 0.000000 0.000000 1.000000
vn 0.000000 0.000000 1.000000
vn 0.000000 0.000000 1.000000
vn 0.000000 0.000000 1.000000
vn 0.000000 0.000000 1.000000
vn 0.000000 0.000000 1.000000
vn 0.000000 0.000000 1.000000
vn 0.000000 0.000000 1.000000
vn 0.000000 0.000000 1.000000
vn 0.000000 0.000000 1.000000
vn 0.000000 0.000000 1.000000
vn 0.000001 0.000000 1.000000
vn 0.000000 0.000000 1.000000
vn 0.000004 0.000000 1.000000
vn 0.000000 0.000000 1.000000
vn 0.000000 0.000000 1.000000
vn 0.000000 0.000000 1.000000
vn 0.000000 0.000000 1.000000
vn 0.000000 0.000000 1.000000
vn 0.000000 0.000000 1.000000
vn 0.000000 0.000000 1.000000
vn 0.000000 0.000000 1.000000
vn 0.000000 0.000000 1.000000
vn 0.000000 1.000000 0.000000
vn 0.000000 1.000000 0.000000
vn 0.000000 1.000000 0.000000
vn 0.000000 1.000000 0.000000
vn 0.000000 0.000000 1.000000
vn 0.000000 0.000000 1.000000
vn 0.000000 0.000000 1.000000
vn 0.000000 0.000000 1.000000
vn 0.000000 0.000000 1.000000
vn 0.000000 0.000000 1.000000
vn 0.000000 -1.000000 0.000000
vn 0.000000 -1.000000 0.000000
vn 0.000000 -1.000000 0.000000
vn 0.000000 -1.000000 0.000000
vn 0.000000 1.000000 0.000000
vn 0.000000 1.000000 0.000000
vn 0.000000 0.000000 1.000000
vn 0.000000 0.000000 1.000000
vn 0.000000 0.000000 1.000000
vn 0.000000 -1.000000 0.000000
vn 0.000000 -1.000000 0.000000
vn 0.000000 0.000000 1.000000
vn 0.000000 0.000000 1.000000
vn 0.000000 0.000000 1.000000
vn 0.000000 0.000000 1.000000
vn 0.000000 1.000000 0.000000
vn 0.000000 1.000000 0.000000
vn 0.000000 1.000000 0.000000
vn 0.000000 1.000000 0.000000
vn 0.000000 0.000000 -1.000000
vn 0.000000 0.000000 -1.000000
vn 0.000000 0.000000 -1.000000
vn 0.000000 0.000000 -1.000000
vn 0.000000 -1.000000 0.000000
vn 0.000000 -1.000000 0.000000
vn 0.000000 -1.000000 0.000000
vn 0.000000 -1.000000 0.000000
vn 1.000000 0.000000 0.000000
vn 1.000000 0.000000 0.000000
vn 1.000000 0.000000 0.000000
vn 1.000000 0.000000 0.000000
vn -1.000000 0.000000 0.000000
vn -1.000000 0.000000 0.000000
vn -1.000000 0.000000 0.000000
vn -1.000000 0.000000 0.000000
vn 0.000000 0.000000 1.000000
vn 0.000000 0.000000 1.000000
vn 0.000000 0.000000 1.000000
vn 0.000000 0.000000 1.000000
vn 0.000000 1.000000 0.000000
vn 0.000000 1.000000 0.000000
vn 0.000000 1.000000 0.000000
vn 0.000000 1.000000 0.000000
vn 0.000000 0.000000 -1.000000
vn 0.000000 0.000000 -1.000000
vn 0.000000 0.000000 -1.000000
vn 0.000000 0.000000 -1.000000
vn 0.000000 -1.000000 0.000000
vn 0.000000 -1.000000 0.000000
vn 0.000000 -1.000000 0.000000
vn 0.000000 -1.000000 0.000000
vn 1.000000 0.000000 0.000000
vn 1.000000 0.000000 0.000000
vn 1.000000 0.000000 0.000000
vn 1.000000 0.000000 0.000000
vn -1.000000 0.000000 0.000000
vn -1.000000 0.000000 0.000000
vn -1.000000 0.000000 0.000000
vn -1.000000 0.000000 0.000000
vn 0.000000 0.000000 1.000000
vn 0.000000 0.000000 1.000000
vn 0.000000 0.000000 1.000000
vn 0.000000 0.000000 1.000000
vn 0.000000 1.000000 0.000000
vn 0.000000 1.000000 0.000000
vn 0.000000 1.000000 0.000000
vn 0.000000 1.000000 0.000000
vn 0.000000 0.000000 -1.000000
vn 0.000000 0.000000 -1.000000
vn 0.000000 0.000000 -1.000000
vn 0.000000 0.000000 -1.000000
vn 0.000000 -1.000000 0.000000
vn 0.000000 -1.000000 0.000000
vn 0.000000 -1.000000 0.000000
vn 0.000000 -1.000000 0.000000
vn 1.000000 0.000000 0.000000
vn 1.000000 0.000000 0.000000
vn 1.000000 0.000000 0.000000
vn 1.000000 0.000000 0.000000
vn -1.000000 0.000000 0.000000
vn -1.000000 0.000000 0.000000
vn -1.000000 0.000000 0.000000
vn -1.000000 0.000000 0.000000
s off
g Hallway
usemtl initialShadingGroup
f 1/1/1 2/2/2 4/4/3 3/3/4
f 3/3/5 4/4/6 6/6/7 5/5/8
f 5/5/9 6/6/10 8/8/11 7/7/12
f 7/7/13 8/8/14 2/10/15 1/9/16
f 2/2/17 8/11/18 6/12/19 4/4/20
f 7/13/21 1/1/22 3/3/23 5/14/24
s 1
f 9/15/25 62/16/26 63/17/27 11/18/28
s off
f 9/19/29 11/20/30 14/21/31 13/22/32
f 12/23/33 10/24/34 15/25/35 16/26/36
f 13/27/37 14/28/38 18/29/39 17/30/40
f 16/31/41 15/32/42 19/33/43 20/34/44
f 17/35/45 18/36/46 22/37/47 21/38/48
f 20/39/49 19/40/50 23/41/51 24/42/52
f 21/43/53 22/44/54 26/45/55 25/46/56
f 24/47/57 23/48/58 27/49/59 28/50/60
f 25/51/61 26/52/62 30/53/63 29/54/64
f 28/55/65 27/56/66 31/57/67 32/58/68
f 29/59/69 30/60/70 34/61/71 33/62/72
f 32/63/73 31/64/74 35/65/75 36/66/76
f 33/67/77 34/68/78 38/69/79 37/70/80
f 36/71/81 35/72/82 39/73/83 40/74/84
f 37/75/85 38/76/86 42/77/87 41/78/88
f 40/79/89 39/80/90 43/81/91 44/82/92
f 41/83/93 42/84/94 46/85/95 45/86/96
f 44/87/97 43/88/98 47/89/99 48/90/100
s 2
f 45/86/101 46/85/102 67/91/103 68/92/104
s 3
f 14/21/105 64/93/106 65/94/107 34/61/108
f 63/95/109 64/93/106 14/21/105 11/18/110
f 28/55/111 20/39/112 24/47/113
f 38/69/114 46/85/115 42/77/116
f 18/29/117 30/53/118 26/45/119
f 34/61/108 65/94/107 66/96/120 38/69/114
f 48/90/121 40/79/122 44/87/123
f 38/69/114 66/96/120 67/91/124 46/85/115
f 14/21/105 34/61/108 30/53/118 18/29/117
f 18/29/117 26/45/119 22/37/125
f 36/71/126 16/31/127 20/39/112 32/63/128
f 32/63/128 20/39/112 28/55/111
s 1
f 50/97/129 49/98/130 55/99/131 56/100/132
s 3
f 52/101/133 51/102/134 58/103/135 59/104/136
f 53/105/137 52/101/133 59/104/136 60/106/138
s 2
f 54/107/139 53/105/140 60/106/141 61/108/142
s 1
f 56/100/132 55/99/131 10/109/143 12/110/144
s 3
f 12/23/145 16/31/127 57/111/146 56/112/147
f 58/103/135 57/111/146 16/31/127 36/71/126
f 59/104/136 58/103/135 36/71/126 40/79/122
f 60/106/138 59/104/136 40/79/122 48/90/121
s 2
f 61/108/142 60/106/141 48/90/148 47/89/149
s 1
f 63/17/27 62/16/26 49/98/130 50/97/129
s 3
f 66/96/120 65/94/107 51/102/134 52/101/133
f 67/91/124 66/96/120 52/101/133 53/105/137
s 2
f 68/92/104 67/91/103 53/105/140 54/107/139
s off
f 69/113/150 70/114/151 72/115/152 71/116/153
f 71/116/154 72/115/155 74/117/156 73/118/157
f 73/118/158 74/117/159 76/119/160 75/120/161
f 75/120/162 76/119/163 70/121/164 69/122/165
f 70/114/166 76/123/167 74/124/168 72/115/169
f 75/125/170 69/113/171 71/116/172 73/126/173
f 77/127/174 78/128/175 80/129/176 79/130/177
f 79/130/178 80/129/179 82/131/180 81/132/181
f 81/132/182 82/131/183 84/133/184 83/134/185
f 83/134/186 84/133/187 78/135/188 77/136/189
f 78/128/190 84/137/191 82/138/192 80/129/193
f 83/139/194 77/127/195 79/130/196 81/140/197
f 85/141/198 86/142/199 88/143/200 87/144/201
f 87/144/202 88/143/203 90/145/204 89/146/205
f 89/146/206 90/145/207 92/147/208 91/148/209
f 91/148/210 92/147/211 86/149/212 85/150/213
f 86/142/214 92/151/215 90/152/216 88/143/217
f 91/153/218 85/141/219 87/144/220 89/154/221
