# This file uses centimeters as units for non-parametric coordinates.

mtllib Room_test.mtl
g default
v 0.915438 0.015400 -0.047919
v 0.915438 0.015400 -1.394779
v 0.915438 0.080470 -0.047919
v 0.915438 0.080470 -1.394779
v -0.739141 0.080470 -0.047919
v -0.739141 0.080470 -1.394779
v -0.739141 0.015400 -0.047919
v -0.739141 0.015400 -1.394779
v 0.915438 0.015400 -0.135465
v -0.739141 0.015400 -0.135465
v -0.739141 0.080470 -0.135465
v 0.915438 0.080470 -0.135465
v 0.915438 0.015400 -1.307233
v -0.739141 0.015400 -1.307233
v -0.739141 0.080470 -1.307233
v 0.915438 0.080470 -1.307233
v 0.832316 0.080470 -0.047919
v 0.832316 0.080470 -0.135465
v 0.832316 0.080470 -1.307233
v 0.832316 0.080470 -1.394779
v 0.832316 0.015400 -1.394779
v 0.832316 0.015400 -1.307233
v 0.832316 0.015400 -0.135465
v 0.832316 0.015400 -0.047919
v -0.656019 0.080470 -0.047919
v -0.656019 0.080470 -0.135465
v -0.656019 0.080470 -1.307233
v -0.656019 0.080470 -1.394779
v -0.656019 0.015400 -1.394779
v -0.656019 0.015400 -1.307233
v -0.656019 0.015400 -0.135465
v -0.656019 0.015400 -0.047919
v -0.739141 1.150866 -1.307233
v -0.656019 1.150866 -1.307233
v -0.656019 1.150866 -1.394779
v -0.739141 1.150866 -1.394779
v -0.656019 1.150866 -0.047919
v -0.656019 1.150866 -0.135465
v -0.739141 1.150866 -0.135465
v -0.739141 1.150866 -0.047919
v 0.915438 1.150866 -0.047919
v 0.915438 1.150866 -0.135465
v 0.832316 1.150866 -0.135465
v 0.832316 1.150866 -0.047919
v 0.832316 1.150866 -1.307233
v 0.915438 1.150866 -1.307233
v 0.832316 1.150866 -1.394779
v 0.915438 1.150866 -1.394779
v 0.351437 0.080470 -0.047919
v 0.351437 1.150866 -0.047919
v 0.351436 1.150866 -0.135465
v 0.351436 0.080470 -0.135465
v 0.351436 0.080470 -1.307233
v 0.351436 1.150866 -1.307233
v 0.351437 1.150866 -1.394779
v 0.351437 0.080470 -1.394779
v 0.351436 0.015400 -1.394779
v 0.351437 0.015400 -1.307233
v 0.351437 0.015400 -0.135465
v 0.351436 0.015400 -0.047919
v -0.244447 0.080470 -0.135465
v -0.244447 1.150866 -0.135465
v -0.244447 1.150866 -0.047919
v -0.244447 0.080470 -0.047919
v -0.244447 0.015400 -0.047919
v -0.244447 0.015400 -0.135465
v -0.244447 0.015400 -1.307233
v -0.244447 0.015400 -1.394779
v -0.244447 0.080470 -1.394779
v -0.244447 1.150866 -1.394779
v -0.244447 1.150866 -1.307233
v -0.244447 0.080470 -1.307233
v -0.656019 0.802139 -1.307233
v -0.244447 0.802139 -1.307233
v 0.351436 0.802139 -1.307233
v 0.832316 0.802139 -1.307233
v 0.832316 0.802139 -0.135465
v 0.351436 0.802139 -0.135465
v -0.244447 0.802139 -0.135465
v -0.656019 0.802139 -0.135465
v -0.739141 0.803498 -1.307233
v -0.739141 0.803498 -0.135465
v -0.739141 0.803498 -0.047919
v -0.656019 0.803498 -0.047919
v -0.244447 0.803498 -0.047919
v 0.351437 0.803498 -0.047919
v 0.832316 0.803498 -0.047919
v 0.915438 0.803498 -0.047919
v 0.915438 0.803498 -0.135465
v 0.915438 0.803498 -1.307233
v 0.915438 0.803498 -1.394779
v 0.832316 0.803498 -1.394779
v 0.351437 0.803498 -1.394779
v -0.244447 0.803498 -1.394779
v -0.656019 0.803498 -1.394779
v -0.739141 0.803498 -1.394779
vt 0.375000 0.000000
vt 0.625000 0.000000
vt 0.375000 0.250000
vt 0.625000 0.250000
vt 0.375000 0.500000
vt 0.625000 0.500000
vt 0.375000 0.750000
vt 0.625000 0.750000
vt 0.375000 1.000000
vt 0.625000 1.000000
vt 0.875000 0.000000
vt 0.875000 0.250000
vt 0.125000 0.000000
vt 0.125000 0.250000
vt 0.391250 0.000000
vt 0.391250 1.000000
vt 0.391250 0.750000
vt 0.391250 0.500000
vt 0.391250 0.250000
vt 0.608750 0.000000
vt 0.608750 1.000000
vt 0.608750 0.750000
vt 0.608750 0.500000
vt 0.608750 0.250000
vt 0.358750 0.250000
vt 0.375000 0.266250
vt 0.391250 0.266250
vt 0.608750 0.266250
vt 0.625000 0.266250
vt 0.641250 0.250000
vt 0.625000 0.983750
vt 0.641250 0.000000
vt 0.608750 0.983750
vt 0.391250 0.983750
vt 0.358750 0.000000
vt 0.375000 0.983750
vt 0.141250 0.250000
vt 0.375000 0.483750
vt 0.391250 0.483750
vt 0.608750 0.483750
vt 0.625000 0.483750
vt 0.858750 0.250000
vt 0.625000 0.766250
vt 0.858750 0.000000
vt 0.608750 0.766250
vt 0.391250 0.766250
vt 0.141250 0.000000
vt 0.375000 0.766250
vt 0.625000 0.483750
vt 0.625000 0.500000
vt 0.608750 0.500000
vt 0.391250 0.500000
vt 0.375000 0.500000
vt 0.375000 0.483750
vt 0.391250 0.483750
vt 0.608750 0.483750
vt 0.375000 0.250000
vt 0.391250 0.250000
vt 0.375000 0.266250
vt 0.608750 0.266250
vt 0.391250 0.266250
vt 0.608750 0.250000
vt 0.625000 0.250000
vt 0.625000 0.266250
vt 0.331738 0.293262
vt 0.375000 0.336524
vt 0.391250 0.336524
vt 0.391250 0.336524
vt 0.608750 0.336524
vt 0.608750 0.336524
vt 0.625000 0.336524
vt 0.625000 0.336524
vt 0.711524 0.250000
vt 0.625000 0.913476
vt 0.711524 0.000000
vt 0.608750 0.913476
vt 0.391250 0.913476
vt 0.288476 0.000000
vt 0.375000 0.913476
vt 0.391250 0.423604
vt 0.391250 0.423604
vt 0.375000 0.423604
vt 0.288198 0.336802
vt 0.201396 0.000000
vt 0.375000 0.826396
vt 0.391250 0.826396
vt 0.608750 0.826396
vt 0.625000 0.826396
vt 0.798604 0.000000
vt 0.625000 0.423604
vt 0.798604 0.250000
vt 0.625000 0.423604
vt 0.608750 0.423604
vt 0.608750 0.423604
vt 0.608750 0.483750
vt 0.608750 0.423604
vt 0.608750 0.336524
vt 0.608750 0.266250
vt 0.391250 0.266250
vt 0.391250 0.336524
vt 0.391250 0.423604
vt 0.391250 0.483750
vt 0.608750 0.500000
vt 0.391250 0.500000
vt 0.375000 0.500000
vt 0.375000 0.483750
vt 0.375000 0.423604
vt 0.375000 0.336524
vt 0.375000 0.266250
vt 0.375000 0.250000
vt 0.391250 0.250000
vt 0.608750 0.250000
vt 0.625000 0.250000
vt 0.625000 0.266250
vt 0.625000 0.336524
vt 0.625000 0.423604
vt 0.625000 0.483750
vt 0.625000 0.500000
vn 1.000000 0.000000 0.000000
vn 1.000000 0.000000 0.000000
vn 1.000000 0.000000 0.000000
vn 1.000000 0.000000 0.000000
vn 0.000000 1.000000 0.000000
vn 0.000000 1.000000 0.000000
vn 0.000000 1.000000 0.000000
vn 0.000000 1.000000 0.000000
vn -1.000000 0.000000 -0.000000
vn -1.000000 0.000000 -0.000000
vn -1.000000 0.000000 -0.000000
vn -1.000000 0.000000 -0.000000
vn 0.000000 -1.000000 0.000000
vn 0.000000 -1.000000 0.000000
vn 0.000000 -1.000000 0.000000
vn 0.000000 -1.000000 0.000000
vn 0.000000 0.000000 -1.000000
vn 0.000000 0.000000 -1.000000
vn 0.000000 0.000000 -1.000000
vn 0.000000 0.000000 -1.000000
vn -0.000000 0.000000 1.000000
vn -0.000000 0.000000 1.000000
vn -0.000000 0.000000 1.000000
vn -0.000000 0.000000 1.000000
vn 0.000000 -1.000000 0.000000
vn 0.000000 -1.000000 0.000000
vn 0.000000 -1.000000 0.000000
vn 0.000000 -1.000000 0.000000
vn -1.000000 0.000000 -0.000000
vn -1.000000 0.000000 -0.000000
vn -1.000000 0.000000 -0.000000
vn -1.000000 0.000000 -0.000000
vn 0.000000 1.000000 0.000000
vn 0.000000 1.000000 0.000000
vn 0.000000 1.000000 0.000000
vn 0.000000 1.000000 0.000000
vn 1.000000 0.000000 0.000000
vn 1.000000 0.000000 0.000000
vn 1.000000 0.000000 0.000000
vn 1.000000 0.000000 0.000000
vn 0.000000 1.000000 0.000000
vn 0.000000 1.000000 0.000000
vn 0.000000 1.000000 0.000000
vn 0.000000 1.000000 0.000000
vn 0.000000 1.000000 0.000000
vn 0.000000 1.000000 0.000000
vn 0.000000 1.000000 0.000000
vn 0.000000 1.000000 0.000000
vn 0.000000 0.000000 -1.000000
vn 0.000000 0.000000 -1.000000
vn 0.000000 0.000000 -1.000000
vn 0.000000 0.000000 -1.000000
vn 0.000000 -1.000000 0.000000
vn 0.000000 -1.000000 0.000000
vn 0.000000 -1.000000 0.000000
vn 0.000000 -1.000000 0.000000
vn 0.000000 -1.000000 0.000000
vn 0.000000 -1.000000 0.000000
vn 0.000000 -1.000000 0.000000
vn 0.000000 -1.000000 0.000000
vn -0.000000 0.000000 1.000000
vn -0.000000 0.000000 1.000000
vn -0.000000 0.000000 1.000000
vn -0.000000 0.000000 1.000000
vn 0.000000 1.000000 0.000000
vn 0.000000 1.000000 0.000000
vn 0.000000 1.000000 0.000000
vn 0.000000 1.000000 0.000000
vn 0.000000 1.000000 0.000000
vn 0.000000 1.000000 0.000000
vn 0.000000 1.000000 0.000000
vn 0.000000 1.000000 0.000000
vn 0.000000 1.000000 0.000000
vn 0.000000 1.000000 0.000000
vn 0.000000 1.000000 0.000000
vn 0.000000 1.000000 0.000000
vn 0.000000 0.000000 -1.000000
vn 0.000000 0.000000 -1.000000
vn 0.000000 0.000000 -1.000000
vn 0.000000 0.000000 -1.000000
vn 0.000000 -1.000000 0.000000
vn 0.000000 -1.000000 0.000000
vn 0.000000 -1.000000 0.000000
vn 0.000000 -1.000000 0.000000
vn 0.000000 -1.000000 0.000000
vn 0.000000 -1.000000 0.000000
vn 0.000000 -1.000000 0.000000
vn 0.000000 -1.000000 0.000000
vn -0.000000 0.000000 1.000000
vn -0.000000 0.000000 1.000000
vn -0.000000 0.000000 1.000000
vn -0.000000 0.000000 1.000000
vn 0.000000 0.000000 -1.000000
vn 0.000000 0.000000 -1.000000
vn 0.000000 0.000000 -1.000000
vn 0.000000 0.000000 -1.000000
vn -1.000000 0.000000 -0.000000
vn -1.000000 0.000000 -0.000000
vn -1.000000 0.000000 -0.000000
vn -1.000000 0.000000 -0.000000
vn -1.000000 0.000000 -0.000000
vn -1.000000 0.000000 -0.000000
vn -1.000000 0.000000 -0.000000
vn -1.000000 0.000000 -0.000000
vn -0.000000 0.000000 1.000000
vn -0.000000 0.000000 1.000000
vn -0.000000 0.000000 1.000000
vn -0.000000 0.000000 1.000000
vn 1.000000 0.000000 0.000000
vn 1.000000 0.000000 0.000000
vn 1.000000 0.000000 0.000000
vn 1.000000 0.000000 0.000000
vn -1.000000 0.000000 -0.000000
vn -1.000000 0.000000 -0.000000
vn -1.000000 0.000000 -0.000000
vn -1.000000 0.000000 -0.000000
vn 1.000000 0.000000 0.000000
vn 1.000000 0.000000 0.000000
vn 1.000000 0.000000 0.000000
vn 1.000000 0.000000 0.000000
vn -0.000000 0.000000 1.000000
vn -0.000000 0.000000 1.000000
vn -0.000000 0.000000 1.000000
vn -0.000000 0.000000 1.000000
vn -1.000000 0.000000 -0.000000
vn -1.000000 0.000000 -0.000000
vn -1.000000 0.000000 -0.000000
vn -1.000000 0.000000 -0.000000
vn 1.000000 0.000000 0.000000
vn 1.000000 0.000000 0.000000
vn 1.000000 0.000000 0.000000
vn 1.000000 0.000000 0.000000
vn 1.000000 0.000000 0.000000
vn 1.000000 0.000000 0.000000
vn 1.000000 0.000000 0.000000
vn 1.000000 0.000000 0.000000
vn 0.000000 0.000000 -1.000000
vn 0.000000 0.000000 -1.000000
vn 0.000000 0.000000 -1.000000
vn 0.000000 0.000000 -1.000000
vn 0.000000 0.000000 -1.000000
vn 0.000000 0.000000 -1.000000
vn 0.000000 0.000000 -1.000000
vn 0.000000 0.000000 -1.000000
vn -0.000000 0.000000 1.000000
vn -0.000000 0.000000 1.000000
vn -0.000000 0.000000 1.000000
vn -0.000000 0.000000 1.000000
vn -0.000000 0.000000 1.000000
vn -0.000000 0.000000 1.000000
vn -0.000000 0.000000 1.000000
vn -0.000000 0.000000 1.000000
vn 0.000000 0.000000 -1.000000
vn 0.000000 0.000000 -1.000000
vn 0.000000 0.000000 -1.000000
vn 0.000000 0.000000 -1.000000
vn -0.000000 0.000000 1.000000
vn -0.000000 0.000000 1.000000
vn 0.000000 0.000000 -1.000000
vn 0.000000 0.000000 -1.000000
vn 0.000000 1.000000 0.000000
vn 0.000000 1.000000 0.000000
vn -0.000000 0.000000 1.000000
vn -0.000000 0.000000 1.000000
vn 0.000000 0.000000 -1.000000
vn 0.000000 0.000000 -1.000000
vn 0.000000 0.000000 -1.000000
vn 0.000000 0.000000 -1.000000
vn -0.000000 0.000000 1.000000
vn -0.000000 0.000000 1.000000
vn 0.000000 0.000000 -1.000000
vn 0.000000 0.000000 -1.000000
vn -0.000000 0.000000 1.000000
vn -0.000000 0.000000 1.000000
vn 0.000000 1.000000 0.000000
vn 0.000000 1.000000 0.000000
vn -0.000000 0.000000 1.000000
vn -0.000000 0.000000 1.000000
vn -0.000000 0.000000 1.000000
vn -0.000000 0.000000 1.000000
vn -1.000000 0.000000 -0.000000
vn -1.000000 0.000000 -0.000000
vn 0.000000 0.000000 -1.000000
vn 0.000000 0.000000 -1.000000
vn 0.000000 0.000000 -1.000000
vn 0.000000 0.000000 -1.000000
vn 1.000000 0.000000 0.000000
vn 1.000000 0.000000 0.000000
vn -1.000000 0.000000 -0.000000
vn -1.000000 0.000000 -0.000000
vn -1.000000 0.000000 -0.000000
vn -1.000000 0.000000 -0.000000
vn -0.000000 0.000000 1.000000
vn -0.000000 0.000000 1.000000
vn -0.000000 0.000000 1.000000
vn -0.000000 0.000000 1.000000
vn -0.000000 0.000000 1.000000
vn -0.000000 0.000000 1.000000
vn -0.000000 0.000000 1.000000
vn -0.000000 0.000000 1.000000
vn 1.000000 0.000000 0.000000
vn 1.000000 0.000000 0.000000
vn 1.000000 0.000000 0.000000
vn 1.000000 0.000000 0.000000
vn 1.000000 0.000000 0.000000
vn 1.000000 0.000000 0.000000
vn 0.000000 0.000000 -1.000000
vn 0.000000 0.000000 -1.000000
vn 0.000000 0.000000 -1.000000
vn 0.000000 0.000000 -1.000000
vn 0.000000 0.000000 -1.000000
vn 0.000000 0.000000 -1.000000
vn 0.000000 0.000000 -1.000000
vn 0.000000 0.000000 -1.000000
vn -1.000000 0.000000 -0.000000
vn -1.000000 0.000000 -0.000000
vn -0.000000 -0.999880 0.015523
vn -0.000000 -0.999879 0.015523
vn -0.000000 -0.999880 0.015523
vn -0.000000 -0.999880 0.015523
vn -1.000000 0.000000 0.000002
vn -1.000000 0.000000 0.000002
vn -1.000000 0.000000 0.000002
vn -1.000000 0.000000 0.000002
vn 1.000000 0.000000 -0.000004
vn 1.000000 0.000000 -0.000004
vn 1.000000 0.000000 -0.000004
vn 1.000000 0.000000 -0.000004
vn 0.000000 1.000000 0.000000
vn 0.000000 1.000000 0.000000
vn 0.000000 1.000000 0.000000
vn 0.000000 1.000000 0.000000
s 1
g Room_test
usemtl initialShadingGroup
f 16/24/1 13/20/2 2/2/3 4/4/4
s 2
f 33/51/5 34/56/6 35/49/7 36/50/8
s 3
f 14/22/9 15/23/10 6/6/11 8/8/12
s 4
f 29/43/13 30/45/14 14/22/15 8/8/16
s 5
f 28/42/17 29/44/18 8/11/19 6/12/20
s 6
f 7/13/21 32/47/22 25/37/23 5/14/24
s 4
f 7/7/25 10/17/26 31/46/27 32/48/28
s 3
f 5/5/29 11/18/30 10/17/31 7/7/32
s 2
f 37/54/33 38/55/34 39/52/35 40/53/36
s 1
f 1/1/37 9/15/38 12/19/39 3/3/40
s 4
f 30/45/14 31/46/27 10/17/26 14/22/15
s 3
f 10/17/31 11/18/30 15/23/10 14/22/9
s 2
f 39/52/35 38/55/34 34/56/6 33/51/5
s 1
f 12/19/39 9/15/38 13/20/2 16/24/1
s 2
f 41/57/41 42/58/42 43/61/43 44/59/44
f 45/60/45 43/61/43 42/58/42 46/62/46
f 47/64/47 45/60/45 46/62/46 48/63/48
s 5
f 2/2/49 21/32/50 20/30/51 4/4/52
s 4
f 13/21/53 22/33/54 21/31/55 2/10/56
f 9/16/57 23/34/58 22/33/54 13/21/53
f 24/36/59 23/34/58 9/16/57 1/9/60
s 6
f 17/25/61 24/35/62 1/1/63 3/3/64
s 2
f 50/66/65 51/67/66 62/81/67 63/82/68
s 12
f 72/94/69 61/80/70 52/68/71 53/69/72
s 2
f 70/92/73 71/93/74 54/70/75 55/71/76
s 5
f 56/73/77 57/75/78 68/89/79 69/91/80
s 4
f 57/74/81 58/76/82 67/87/83 68/88/84
f 58/76/82 59/77/85 66/86/86 67/87/83
f 65/85/87 66/86/86 59/77/85 60/79/88
s 6
f 64/83/89 65/84/90 60/78/91 49/65/92
s 13
f 95/117/93 96/118/94 36/50/95 35/49/96
s 14
f 96/118/97 81/103/98 33/51/99 36/50/100
s 15
f 82/104/101 83/105/102 40/53/103 39/52/104
s 16
f 83/105/105 84/106/106 37/54/107 40/53/108
s 17
f 80/102/109 73/95/110 34/56/111 38/55/112
s 18
f 81/103/113 82/104/114 39/52/115 33/51/116
s 19
f 88/110/117 89/111/118 42/58/119 41/57/120
s 20
f 87/109/121 88/110/122 41/57/123 44/59/124
s 21
f 76/98/125 77/99/126 43/61/127 45/60/128
s 22
f 89/111/129 90/112/130 46/62/131 42/58/132
s 23
f 90/112/133 91/113/134 48/63/135 46/62/136
s 24
f 91/113/137 92/114/138 47/64/139 48/63/140
s 25
f 51/67/141 78/100/142 79/101/143 62/81/144
s 26
f 63/82/145 85/107/146 86/108/147 50/66/148
s 27
f 71/93/149 74/96/150 75/97/151 54/70/152
s 28
f 55/71/153 93/115/154 94/116/155 70/92/156
s 26
f 50/66/148 86/108/147 87/109/157 44/59/158
s 2
f 44/59/44 43/61/43 51/67/66 50/66/65
s 25
f 77/99/159 78/100/142 51/67/141 43/61/160
s 12
f 53/69/72 52/68/71 18/27/161 19/28/162
s 27
f 54/70/152 75/97/151 76/98/163 45/60/164
s 2
f 55/71/76 54/70/75 45/60/45 47/64/47
s 28
f 92/114/165 93/115/154 55/71/153 47/64/166
s 5
f 20/30/51 21/32/50 57/75/78 56/73/77
s 4
f 21/31/55 22/33/54 58/76/82 57/74/81
f 22/33/54 23/34/58 59/77/85 58/76/82
f 60/79/88 59/77/85 23/34/58 24/36/59
s 6
f 49/65/92 60/78/91 24/35/62 17/25/61
s 25
f 62/81/144 79/101/143 80/102/167 38/55/168
s 2
f 63/82/68 62/81/67 38/55/34 37/54/33
s 26
f 84/106/169 85/107/146 63/82/145 37/54/170
s 6
f 25/37/23 32/47/22 65/84/90 64/83/89
s 4
f 32/48/28 31/46/27 66/86/86 65/85/87
f 67/87/83 66/86/86 31/46/27 30/45/14
f 68/88/84 67/87/83 30/45/14 29/43/13
s 5
f 69/91/80 68/89/79 29/44/18 28/42/17
s 28
f 70/92/156 94/116/155 95/117/171 35/49/172
s 2
f 35/49/7 34/56/6 71/93/74 70/92/73
s 27
f 73/95/173 74/96/150 71/93/149 34/56/174
s 12
f 27/40/175 26/39/176 61/80/70 72/94/69
s 27
f 27/40/177 72/94/178 74/96/150 73/95/173
f 75/97/151 74/96/150 72/94/178 53/69/179
f 76/98/163 75/97/151 53/69/179 19/28/180
s 21
f 19/28/181 18/27/182 77/99/126 76/98/125
s 25
f 18/27/183 52/68/184 78/100/142 77/99/159
f 80/102/167 79/101/143 61/80/185 26/39/186
s 17
f 26/39/187 27/40/188 73/95/110 80/102/109
s 18
f 15/23/189 11/18/190 82/104/114 81/103/113
s 15
f 11/18/191 5/5/192 83/105/102 82/104/101
s 16
f 5/5/193 25/38/194 84/106/106 83/105/105
s 26
f 25/38/195 64/83/196 85/107/146 84/106/169
f 87/109/157 86/108/147 49/65/197 17/26/198
s 20
f 17/26/199 3/3/200 88/110/122 87/109/121
s 19
f 3/3/201 12/19/202 89/111/118 88/110/117
s 22
f 12/19/203 16/24/204 90/112/130 89/111/129
s 23
f 16/24/205 4/4/206 91/113/134 90/112/133
s 24
f 4/4/207 20/29/208 92/114/138 91/113/137
s 28
f 20/29/209 56/72/210 93/115/154 92/114/165
f 94/116/155 93/115/154 56/72/210 69/90/211
f 95/117/171 94/116/155 69/90/211 28/41/212
s 13
f 28/41/213 6/6/214 96/118/94 95/117/93
s 14
f 6/6/215 15/23/216 81/103/98 96/118/97
s off
f 79/101/217 78/100/218 86/108/219 85/107/220
f 49/65/221 86/108/222 78/100/223 52/68/224
f 61/80/225 79/101/226 85/107/227 64/83/228
f 64/83/229 49/65/230 52/68/231 61/80/232
