# This file uses centimeters as units for non-parametric coordinates.

mtllib MainRoadFolding.mtl
g default
v 0.599670 1.840825 85.592262
v 0.599670 3.774223 175.595154
v -516.789001 1.840825 85.592262
v -516.789001 3.774223 175.595261
v 0.599670 4.716606 85.592262
v 0.599670 4.766197 85.650902
v -516.789001 4.766197 85.650902
v -516.789001 4.716606 85.592262
v 0.599670 4.766197 92.129433
v 0.599670 4.716606 92.185425
v -516.789001 4.716606 92.185425
v -516.789001 4.766197 92.129448
v 0.599670 4.716606 168.907822
v 0.599670 4.766197 168.963791
v -516.789001 4.766197 168.963791
v -516.789001 4.716606 168.907822
v 0.599670 4.766197 175.536621
v 0.599670 4.716602 175.595261
v -516.789001 4.716606 175.595261
v -516.789001 4.766197 175.536621
v 0.599670 3.774223 168.694885
v 0.599670 3.962681 168.907776
v -516.789001 3.962681 168.907776
v -516.789001 3.774223 168.694885
v 0.599670 3.962681 92.185425
v 0.599670 3.774223 92.398323
v -516.789001 3.774223 92.398323
v -516.789001 3.962681 92.185425
v 0.599670 3.774223 -180.313721
v 0.599670 1.840825 -90.310822
v -516.789001 3.774223 -180.313721
v -516.789001 1.840825 -90.310715
v 0.599670 4.716606 -180.313721
v 0.599670 4.766197 -180.255066
v -516.789001 4.766197 -180.255066
v -516.789001 4.716606 -180.313721
v 0.599670 4.766197 -173.984924
v 0.599670 4.716606 -173.928650
v -516.789001 4.716606 -173.928650
v -516.789001 4.766197 -173.984909
v 0.599670 4.716606 -96.790092
v 0.599670 4.766197 -96.733795
v -516.789001 4.766197 -96.733795
v -516.789001 4.716606 -96.790092
v 0.599670 4.766197 -90.369354
v 0.599670 4.716602 -90.310715
v -516.789001 4.716606 -90.310715
v -516.789001 4.766197 -90.369354
v 0.599670 3.774223 -97.004166
v 0.599670 3.962681 -96.790123
v -516.789001 3.962681 -96.790123
v -516.789001 3.774223 -97.004166
v 0.599670 3.962681 -173.928650
v 0.599670 3.774223 -173.714569
v -516.789001 3.774223 -173.714569
v -516.789001 3.962681 -173.928650
v 0.599670 1.840825 0.865547
v -516.789001 1.840825 0.865597
v 0.599670 1.840825 -5.584222
v -516.789001 1.840825 -5.584168
vt 0.001957 0.999958
vt 0.002026 0.000000
vt 0.012775 0.000001
vt 0.012706 0.999959
vt 0.001891 0.000000
vt 0.001821 0.999958
vt 0.012908 0.000001
vt 0.012839 0.999959
vt 0.141669 0.999968
vt 0.141738 0.000010
vt 0.152333 0.000011
vt 0.152264 0.999969
vt 0.141606 0.000010
vt 0.141536 0.999968
vt 0.152469 0.000011
vt 0.152400 0.999969
vt 0.014800 0.999959
vt 0.014869 0.000001
vt 0.139645 0.000010
vt 0.139575 0.999968
vt 0.014365 0.000001
vt 0.014296 0.999959
vt 0.140149 0.000010
vt 0.140079 0.999968
vt 0.451324 0.999989
vt 0.451393 0.000031
vt 0.461802 0.000032
vt 0.461732 0.999990
vt 0.451258 0.000031
vt 0.451188 0.999989
vt 0.461935 0.000032
vt 0.461865 0.999990
vt 0.591375 0.999999
vt 0.591445 0.000041
vt 0.601699 0.000042
vt 0.601630 1.000000
vt 0.591312 0.000041
vt 0.591242 0.999999
vt 0.601835 0.000042
vt 0.601765 1.000000
vt 0.463828 0.999990
vt 0.463897 0.000032
vt 0.589350 0.000041
vt 0.589280 0.999999
vt 0.463392 0.000032
vt 0.463322 0.999990
vt 0.589855 0.000041
vt 0.589785 0.999999
vt 0.157958 0.999969
vt 0.158027 0.000011
vt 0.445700 0.000031
vt 0.445630 0.999989
vt 0.000000 0.999958
vt 0.000069 0.000000
vt 0.603656 0.000042
vt 0.603587 1.000000
vt 0.296589 0.000021
vt 0.296520 0.999979
vt 0.307137 0.000021
vt 0.307068 0.999979
vn 0.000000 1.000000 0.000000
vn 0.000000 1.000000 0.000000
vn 0.000000 1.000000 0.000000
vn 0.000000 1.000000 0.000000
vn 0.000000 1.000000 0.000000
vn 0.000000 1.000000 0.000000
vn 0.000000 1.000000 0.000000
vn 0.000000 1.000000 0.000000
vn 0.000000 1.000000 0.000000
vn 0.000000 1.000000 0.000000
vn 0.000000 1.000000 0.000000
vn 0.000000 1.000000 0.000000
vn 0.000000 0.000061 -1.000000
vn 0.000000 0.000061 -1.000000
vn 0.000000 0.000061 -1.000000
vn 0.000000 0.000061 -1.000000
vn 0.000000 -0.000057 1.000000
vn 0.000000 -0.000057 1.000000
vn 0.000000 -0.000057 1.000000
vn 0.000000 -0.000057 1.000000
vn 0.000000 0.000000 1.000000
vn 0.000000 0.000000 1.000000
vn 0.000000 0.000000 1.000000
vn 0.000000 0.000000 1.000000
vn 0.000000 0.000000 -1.000000
vn 0.000000 0.000000 -1.000000
vn 0.000000 0.000000 -1.000000
vn 0.000000 0.000000 -1.000000
vn 0.000000 0.763558 -0.645739
vn 0.000000 0.763558 -0.645739
vn 0.000000 0.763558 -0.645739
vn 0.000000 0.763558 -0.645739
vn 0.000000 0.748555 0.663073
vn 0.000000 0.748555 0.663073
vn 0.000000 0.748555 0.663073
vn 0.000000 0.748555 0.663073
vn 0.000000 0.748465 -0.663174
vn 0.000000 0.748465 -0.663174
vn 0.000000 0.748465 -0.663174
vn 0.000000 0.748465 -0.663174
vn -0.000000 0.763546 0.645753
vn -0.000000 0.763546 0.645753
vn -0.000000 0.763546 0.645753
vn -0.000000 0.763546 0.645753
vn 0.000000 0.748768 -0.662833
vn 0.000000 0.748768 -0.662833
vn 0.000000 0.748768 -0.662833
vn 0.000000 0.748768 -0.662833
vn 0.000000 0.748779 0.662819
vn 0.000000 0.748779 0.662819
vn 0.000000 0.748779 0.662819
vn 0.000000 0.748779 0.662819
vn 0.000000 1.000000 0.000000
vn 0.000000 1.000000 0.000000
vn 0.000000 1.000000 0.000000
vn 0.000000 1.000000 0.000000
vn 0.000000 1.000000 0.000000
vn 0.000000 1.000000 0.000000
vn 0.000000 1.000000 0.000000
vn 0.000000 1.000000 0.000000
vn 0.000000 1.000000 0.000000
vn 0.000000 1.000000 0.000000
vn 0.000000 1.000000 0.000000
vn 0.000000 1.000000 0.000000
vn 0.000000 0.000040 -1.000000
vn 0.000000 0.000040 -1.000000
vn 0.000000 0.000040 -1.000000
vn 0.000000 0.000040 -1.000000
vn 0.000000 -0.000019 1.000000
vn 0.000000 -0.000019 1.000000
vn 0.000000 -0.000019 1.000000
vn 0.000000 -0.000019 1.000000
vn 0.000000 0.000000 1.000000
vn 0.000000 0.000000 1.000000
vn 0.000000 0.000000 1.000000
vn 0.000000 0.000000 1.000000
vn 0.000000 0.000000 -1.000000
vn 0.000000 0.000000 -1.000000
vn 0.000000 0.000000 -1.000000
vn 0.000000 0.000000 -1.000000
vn 0.000000 0.763641 -0.645641
vn 0.000000 0.763641 -0.645641
vn 0.000000 0.763641 -0.645641
vn 0.000000 0.763641 -0.645641
vn 0.000000 0.750208 0.661203
vn 0.000000 0.750207 0.661203
vn 0.000000 0.750208 0.661203
vn 0.000000 0.750208 0.661203
vn 0.000000 0.750385 -0.661001
vn 0.000000 0.750385 -0.661001
vn 0.000000 0.750385 -0.661001
vn 0.000000 0.750385 -0.661001
vn -0.000000 0.763546 0.645753
vn -0.000000 0.763546 0.645753
vn -0.000000 0.763546 0.645753
vn -0.000000 0.763546 0.645753
vn 0.000000 0.750540 -0.660825
vn 0.000000 0.750540 -0.660825
vn 0.000000 0.750540 -0.660825
vn 0.000000 0.750540 -0.660825
vn 0.000000 0.750598 0.660759
vn 0.000000 0.750598 0.660759
vn 0.000000 0.750598 0.660759
vn 0.000000 0.750598 0.660759
vn 0.000000 1.000000 0.000000
vn 0.000000 1.000000 0.000000
vn -0.000000 1.000000 -0.000000
vn -0.000000 1.000000 -0.000000
vn 0.000000 1.000000 0.000000
vn 0.000000 1.000000 0.000000
vn 0.000000 1.000000 0.000000
vn 0.000000 1.000000 0.000000
s off
g City_Road1
usemtl lambert2SG
f 20/1/1 17/2/2 14/3/3 15/4/4
f 12/9/5 9/10/6 6/11/7 7/12/8
f 24/17/9 21/18/10 26/19/11 27/20/12
f 16/8/13 13/7/14 22/21/15 23/22/16
f 4/53/17 2/54/18 18/5/19 19/6/20
f 28/24/21 25/23/22 10/13/23 11/14/24
f 8/16/25 5/15/26 1/50/27 3/49/28
f 6/11/29 5/15/30 8/16/31 7/12/32
f 10/13/33 9/10/34 12/9/35 11/14/36
f 14/3/37 13/7/38 16/8/39 15/4/40
f 18/5/41 17/2/42 20/1/43 19/6/44
f 22/21/45 21/18/46 24/17/47 23/22/48
f 26/19/49 25/23/50 28/24/51 27/20/52
f 48/25/53 45/26/54 42/27/55 43/28/56
f 40/33/57 37/34/58 34/35/59 35/36/60
f 52/41/61 49/42/62 54/43/63 55/44/64
f 44/32/65 41/31/66 50/45/67 51/46/68
f 32/52/69 30/51/70 46/29/71 47/30/72
f 56/48/73 53/47/74 38/37/75 39/38/76
f 36/40/77 33/39/78 29/55/79 31/56/80
f 34/35/81 33/39/82 36/40/83 35/36/84
f 38/37/85 37/34/86 40/33/87 39/38/88
f 42/27/89 41/31/90 44/32/91 43/28/92
f 46/29/93 45/26/94 48/25/95 47/30/96
f 50/45/97 49/42/98 52/41/99 51/46/100
f 54/43/101 53/47/102 56/48/103 55/44/104
s 1
f 3/49/105 1/50/106 57/57/107 58/58/108
f 58/58/108 57/57/107 59/59/109 60/60/110
f 60/60/110 59/59/109 30/51/111 32/52/112
