# This file uses centimeters as units for non-parametric coordinates.

mtllib NeuralWorld_RoadConnector_Left.mtl
g default
v 286.704328 1.840825 85.592262
v 286.704328 3.774223 175.595154
v 0.544905 1.840825 85.592262
v 0.544905 3.774223 175.595261
v 286.704328 4.716606 85.592262
v 286.704328 4.766197 85.650902
v 0.544905 4.766197 85.650902
v 0.544905 4.716606 85.592262
v 286.704328 4.766197 92.129433
v 286.704328 4.716606 92.185425
v 0.544905 4.716606 92.185425
v 0.544905 4.766197 92.129448
v 286.704328 4.716606 168.907822
v 286.704328 4.766197 168.963791
v 0.544905 4.766197 168.963791
v 0.544905 4.716606 168.907822
v 286.704328 4.766197 175.536621
v 286.704328 4.716602 175.595261
v 0.544905 4.716606 175.595261
v 0.544905 4.766197 175.536621
v 286.704328 3.774223 168.694885
v 286.704328 3.962681 168.907776
v 0.544905 3.962681 168.907776
v 0.544905 3.774223 168.694885
v 286.704328 3.962681 92.185425
v 286.704328 3.774223 92.398323
v 0.544905 3.774223 92.398323
v 0.544905 3.962681 92.185425
v 286.704328 3.774223 -180.313721
v 286.704328 1.840825 -90.310822
v 0.544905 3.774223 -180.313721
v 0.544905 1.840825 -90.310715
v 286.704328 4.716606 -180.313721
v 286.704328 4.766197 -180.255066
v 0.544905 4.766197 -180.255066
v 0.544905 4.716606 -180.313721
v 286.704328 4.766197 -173.984924
v 286.704328 4.716606 -173.928650
v 0.544905 4.716606 -173.928650
v 0.544905 4.766197 -173.984909
v 286.704328 4.716606 -96.790092
v 286.704328 4.766197 -96.733795
v 0.544905 4.766197 -96.733795
v 0.544905 4.716606 -96.790092
v 286.704328 4.766197 -90.369354
v 286.704328 4.716602 -90.310715
v 0.544905 4.716606 -90.310715
v 0.544905 4.766197 -90.369354
v 286.704328 3.774223 -97.004166
v 286.704328 3.962681 -96.790123
v 0.544905 3.962681 -96.790123
v 0.544905 3.774223 -97.004166
v 286.704328 3.962681 -173.928650
v 286.704328 3.774223 -173.714569
v 0.544905 3.774223 -173.714569
v 0.544905 3.962681 -173.928650
v 286.704328 1.840825 0.865547
v 0.544905 1.840825 0.865597
v 286.704328 1.840825 -5.584222
v 0.544905 1.840825 -5.584168
vt 0.002765 0.776406
vt 0.007060 0.000015
vt 0.024893 0.000114
vt 0.020598 0.776504
vt 0.006851 0.000014
vt 0.002557 0.776404
vt 0.025096 0.000115
vt 0.020801 0.776505
vt 0.233641 0.777683
vt 0.237936 0.001292
vt 0.255513 0.001390
vt 0.251218 0.777780
vt 0.237733 0.001291
vt 0.233438 0.777682
vt 0.255721 0.001391
vt 0.251427 0.777781
vt 0.023618 0.776521
vt 0.027913 0.000131
vt 0.234916 0.001276
vt 0.230621 0.777666
vt 0.027141 0.000126
vt 0.022847 0.776517
vt 0.235687 0.001280
vt 0.231393 0.777670
vt 0.744489 0.780508
vt 0.748784 0.004118
vt 0.766051 0.004214
vt 0.761757 0.780604
vt 0.748575 0.004117
vt 0.744281 0.780507
vt 0.766255 0.004215
vt 0.761960 0.780605
vt 0.975928 0.781789
vt 0.980223 0.005398
vt 0.997235 0.005493
vt 0.992940 0.781883
vt 0.980020 0.005397
vt 0.975725 0.781788
vt 0.997443 0.005494
vt 0.993148 0.781884
vt 0.764779 0.780621
vt 0.769074 0.004230
vt 0.977200 0.005382
vt 0.972905 0.781772
vt 0.768300 0.004226
vt 0.764006 0.780616
vt 0.977974 0.005386
vt 0.973679 0.781776
vt 0.259229 0.777824
vt 0.263524 0.001434
vt 0.740773 0.004074
vt 0.736478 0.780464
vt 0.000000 0.776390
vt 0.004295 0.000000
vt 1.000000 0.005508
vt 0.995705 0.781898
vt 0.493399 0.002705
vt 0.489104 0.779096
vt 0.510898 0.002802
vt 0.506603 0.779193
vn 0.000000 1.000000 0.000000
vn 0.000000 1.000000 0.000000
vn 0.000000 1.000000 0.000000
vn 0.000000 1.000000 0.000000
vn 0.000000 1.000000 0.000000
vn 0.000000 1.000000 0.000000
vn 0.000000 1.000000 0.000000
vn 0.000000 1.000000 0.000000
vn 0.000000 1.000000 0.000000
vn 0.000000 1.000000 0.000000
vn 0.000000 1.000000 0.000000
vn 0.000000 1.000000 0.000000
vn 0.000000 0.000061 -1.000000
vn 0.000000 0.000061 -1.000000
vn 0.000000 0.000061 -1.000000
vn 0.000000 0.000061 -1.000000
vn 0.000000 -0.000057 1.000000
vn 0.000000 -0.000057 1.000000
vn 0.000000 -0.000057 1.000000
vn 0.000000 -0.000057 1.000000
vn 0.000000 0.000000 1.000000
vn 0.000000 0.000000 1.000000
vn 0.000000 0.000000 1.000000
vn 0.000000 0.000000 1.000000
vn 0.000000 0.000000 -1.000000
vn 0.000000 0.000000 -1.000000
vn 0.000000 0.000000 -1.000000
vn 0.000000 0.000000 -1.000000
vn 0.000000 0.763560 -0.645737
vn 0.000000 0.763560 -0.645737
vn 0.000000 0.763560 -0.645737
vn 0.000000 0.763560 -0.645737
vn 0.000000 0.748557 0.663070
vn 0.000000 0.748557 0.663070
vn 0.000000 0.748557 0.663070
vn 0.000000 0.748557 0.663070
vn 0.000000 0.748467 -0.663172
vn 0.000000 0.748467 -0.663172
vn 0.000000 0.748467 -0.663172
vn 0.000000 0.748467 -0.663172
vn -0.000000 0.763549 0.645750
vn -0.000000 0.763549 0.645750
vn -0.000000 0.763549 0.645750
vn -0.000000 0.763549 0.645750
vn 0.000000 0.748767 -0.662833
vn 0.000000 0.748767 -0.662833
vn 0.000000 0.748767 -0.662833
vn 0.000000 0.748767 -0.662833
vn 0.000000 0.748779 0.662820
vn 0.000000 0.748779 0.662820
vn 0.000000 0.748779 0.662820
vn 0.000000 0.748779 0.662820
vn 0.000000 1.000000 0.000000
vn 0.000000 1.000000 0.000000
vn 0.000000 1.000000 0.000000
vn 0.000000 1.000000 0.000000
vn 0.000000 1.000000 0.000000
vn 0.000000 1.000000 0.000000
vn 0.000000 1.000000 0.000000
vn 0.000000 1.000000 0.000000
vn 0.000000 1.000000 0.000000
vn 0.000000 1.000000 0.000000
vn 0.000000 1.000000 0.000000
vn 0.000000 1.000000 0.000000
vn 0.000000 0.000040 -1.000000
vn 0.000000 0.000040 -1.000000
vn 0.000000 0.000040 -1.000000
vn 0.000000 0.000040 -1.000000
vn 0.000000 -0.000019 1.000000
vn 0.000000 -0.000019 1.000000
vn 0.000000 -0.000019 1.000000
vn 0.000000 -0.000019 1.000000
vn 0.000000 0.000000 1.000000
vn 0.000000 0.000000 1.000000
vn 0.000000 0.000000 1.000000
vn 0.000000 0.000000 1.000000
vn 0.000000 0.000000 -1.000000
vn 0.000000 0.000000 -1.000000
vn 0.000000 0.000000 -1.000000
vn 0.000000 0.000000 -1.000000
vn 0.000000 0.763643 -0.645639
vn 0.000000 0.763643 -0.645639
vn 0.000000 0.763643 -0.645639
vn 0.000000 0.763643 -0.645639
vn 0.000000 0.750210 0.661200
vn 0.000000 0.750210 0.661200
vn 0.000000 0.750210 0.661200
vn 0.000000 0.750210 0.661200
vn 0.000000 0.750387 -0.660998
vn 0.000000 0.750387 -0.660998
vn 0.000000 0.750387 -0.660998
vn 0.000000 0.750387 -0.660998
vn -0.000000 0.763549 0.645750
vn -0.000000 0.763549 0.645750
vn -0.000000 0.763549 0.645750
vn -0.000000 0.763549 0.645750
vn 0.000000 0.750539 -0.660826
vn 0.000000 0.750539 -0.660826
vn 0.000000 0.750539 -0.660826
vn 0.000000 0.750539 -0.660826
vn 0.000000 0.750598 0.660760
vn 0.000000 0.750598 0.660760
vn 0.000000 0.750598 0.660760
vn 0.000000 0.750598 0.660760
vn 0.000000 1.000000 0.000000
vn 0.000000 1.000000 0.000000
vn -0.000000 1.000000 -0.000000
vn -0.000000 1.000000 -0.000000
vn 0.000000 1.000000 0.000000
vn 0.000000 1.000000 -0.000000
vn 0.000000 1.000000 0.000000
vn 0.000000 1.000000 0.000000
s off
g City_Road2
usemtl lambert2SG
f 20/1/1 17/2/2 14/3/3 15/4/4
f 12/9/5 9/10/6 6/11/7 7/12/8
f 24/17/9 21/18/10 26/19/11 27/20/12
f 16/8/13 13/7/14 22/21/15 23/22/16
f 4/53/17 2/54/18 18/5/19 19/6/20
f 28/24/21 25/23/22 10/13/23 11/14/24
f 8/16/25 5/15/26 1/50/27 3/49/28
f 6/11/29 5/15/30 8/16/31 7/12/32
f 10/13/33 9/10/34 12/9/35 11/14/36
f 14/3/37 13/7/38 16/8/39 15/4/40
f 18/5/41 17/2/42 20/1/43 19/6/44
f 22/21/45 21/18/46 24/17/47 23/22/48
f 26/19/49 25/23/50 28/24/51 27/20/52
f 48/25/53 45/26/54 42/27/55 43/28/56
f 40/33/57 37/34/58 34/35/59 35/36/60
f 52/41/61 49/42/62 54/43/63 55/44/64
f 44/32/65 41/31/66 50/45/67 51/46/68
f 32/52/69 30/51/70 46/29/71 47/30/72
f 56/48/73 53/47/74 38/37/75 39/38/76
f 36/40/77 33/39/78 29/55/79 31/56/80
f 34/35/81 33/39/82 36/40/83 35/36/84
f 38/37/85 37/34/86 40/33/87 39/38/88
f 42/27/89 41/31/90 44/32/91 43/28/92
f 46/29/93 45/26/94 48/25/95 47/30/96
f 50/45/97 49/42/98 52/41/99 51/46/100
f 54/43/101 53/47/102 56/48/103 55/44/104
s 1
f 3/49/105 1/50/106 57/57/107 58/58/108
f 58/58/108 57/57/107 59/59/109 60/60/110
f 60/60/110 59/59/109 30/51/111 32/52/112
